<svg width="24" height="24" viewBox="0 0 24 24" fill="none" xmlns="http://www.w3.org/2000/svg">
  <!-- Main center facet -->
  <path d="M12 4L7 9L12 14L17 9L12 4Z" fill="#475569" stroke="#1e293b" stroke-width="0.5"/>
  <!-- Left facet -->
  <path d="M7 9L4 13L9 18L12 14L7 9Z" fill="#334155" stroke="#1e293b" stroke-width="0.5"/>
  <!-- Right facet -->
  <path d="M17 9L20 13L15 18L12 14L17 9Z" fill="#64748b" stroke="#1e293b" stroke-width="0.5"/>
  <!-- Bottom facet -->
  <path d="M12 14L9 18L12 21L15 18L12 14Z" fill="#475569" stroke="#1e293b" stroke-width="0.5"/>
  <!-- Light beam entering -->
  <path d="M1 7L6 10" stroke="#64748b" stroke-width="1" stroke-linecap="round"/>
  <!-- Rainbow spectrum rays -->
  <path d="M18 10L23 6" stroke="#EF4444" stroke-width="1.5" stroke-linecap="round"/>
  <path d="M19 12L23 9" stroke="#F97316" stroke-width="1.5" stroke-linecap="round"/>
  <path d="M19.5 14L23 12" stroke="#EAB308" stroke-width="1.5" stroke-linecap="round"/>
  <path d="M19 16L23 15" stroke="#22C55E" stroke-width="1.5" stroke-linecap="round"/>
  <path d="M18 18L22 18" stroke="#3B82F6" stroke-width="1.5" stroke-linecap="round"/>
  <path d="M16 19.5L21 21" stroke="#8B5CF6" stroke-width="1.5" stroke-linecap="round"/>
</svg>
